Coordinates
version=1
nRows=8
nColumns=36
inDegrees=yes

Units are S.I. units (second, meters, Newtons, ...)
If the header above contains a line with 'inDegrees', this indicates whether rotational values are in degrees (yes) or radians (no).

endheader
time	pelvis_tilt	pelvis_list	pelvis_rotation	pelvis_tx	pelvis_ty	pelvis_tz	hip_flexion_r	hip_adduction_r	hip_rotation_r	knee_angle_r	knee_angle_r_beta	ankle_angle_r	subtalar_angle_r	mtp_angle_r	hip_flexion_l	hip_adduction_l	hip_rotation_l	knee_angle_l	knee_angle_l_beta	ankle_angle_l	subtalar_angle_l	mtp_angle_l	lumbar_extension	lumbar_bending	lumbar_rotation	arm_flex_r	arm_add_r	arm_rot_r	elbow_flex_r	pro_sup_r	arm_flex_l	arm_add_l	arm_rot_l	elbow_flex_l	pro_sup_l
      4.15000000	    -31.31650911	     -3.17794719	      5.37951395	      1.34584750	      0.72180202	     -0.06800573	     82.10796083	    -13.12272444	     -4.28108431	     74.48538444	      1.30001520	     26.18858468	     -9.97870805	     -7.49999987	     81.62633778	     -9.19279728	      1.38412930	     73.99216766	      1.29140695	     24.73509331	    -13.54379403	     -7.49999987	    -25.11480837	      0.02864566	      2.05980402	     38.67850763	    -14.46157218	     12.70776586	     93.63182562	     91.85981107	     40.12027691	    -15.85062402	     19.41450034	     85.46246472	    103.26019188
      4.16666670	    -30.42786919	     -3.06862410	      5.29054443	      1.34732466	      0.74138137	     -0.07423261	     79.06131480	    -12.32124497	     -4.23147115	     72.12219900	      1.25876984	     25.95874775	    -10.25371240	     -7.49999987	     78.39059939	     -9.79204376	      0.61868456	     71.41434882	      1.24641552	     24.66417620	    -12.26220000	     -7.49999987	    -23.74926983	     -0.65623893	      1.26614819	     33.81833912	    -14.38439921	     11.49889976	     86.90516580	     88.28190611	     35.58943021	    -15.89732677	     16.47532353	     77.13324975	     97.74573447
      4.18333330	    -29.60500423	     -2.88009926	      5.18436997	      1.34697549	      0.76383053	     -0.07786227	     75.86696128	    -11.72968641	     -4.36121553	     69.08050493	      1.20568226	     25.03683146	    -10.57398146	     -7.49999987	     75.00738272	    -10.20817834	     -0.31703007	     68.24044205	      1.19102040	     23.86077316	    -11.29870194	     -7.49999987	    -23.01226772	     -1.39841315	      0.22662152	     30.42515089	    -14.20382077	     11.01293119	     78.87968529	     85.65576365	     32.00046246	    -15.81125229	     12.98917853	     67.70226180	     94.01500235
      4.20000000	    -28.76511081	     -2.69135356	      5.03926741	      1.35530631	      0.77812905	     -0.07796054	     72.52049773	    -11.16224284	     -4.56620374	     65.76569527	      1.14782792	     24.02375770	    -10.72978043	     -7.49999987	     71.48477997	    -10.38554197	     -1.10176982	     64.88045788	      1.13237761	     22.95732196	    -10.64047061	     -7.49999987	    -21.60548467	     -2.24488390	     -0.76331518	     27.47893897	    -13.62840944	     11.77583696	     70.05423546	     83.19224539	     28.16541839	    -15.67024638	      9.39338039	     58.69007057	     91.37891792
      4.21666670	    -27.46635493	     -2.05135438	      4.81822786	      1.36533980	      0.79184858	     -0.08690628	     68.57685821	    -10.87680703	     -4.38426623	     62.10260067	      1.08389486	     22.76090026	    -10.92140153	     -7.49999987	     66.87750043	    -10.21270795	     -2.26382815	     60.89622268	      1.06283959	     21.88617644	    -10.16984626	     -7.49999987	    -20.44777841	     -3.50859833	     -1.45674992	     24.36498909	    -13.39181273	     11.54715048	     63.33180656	     81.64003630	     24.51659510	    -15.05994859	      5.75926886	     49.75638418	     88.90262942
      4.23333330	    -26.37169882	     -1.68932072	      4.64540338	      1.37281451	      0.80869279	     -0.08480395	     64.70932890	    -10.53950034	     -4.47615514	     58.23136816	      1.01632910	     21.39127528	    -10.95965913	     -7.49999987	     62.57154025	    -10.05413106	     -3.23552902	     56.80178731	      0.99137821	     20.86990905	     -9.48642283	     -7.49999987	    -18.77470293	     -4.73722294	     -1.89641547	     21.93909262	    -12.34181958	     10.37546424	     54.63070996	     81.27146518	     21.51090900	    -15.17350194	      2.11712995	     40.70351825	     88.22320397
      4.25000000	    -25.86710553	     -1.25122034	      4.48348219	      1.36974284	      0.82476133	     -0.08743075	     61.78440637	    -10.43606112	     -4.46946461	     54.60358009	      0.95301226	     19.64921988	    -10.82749445	     -7.49999987	     59.15264924	     -9.79351266	     -4.41336498	     52.82638815	      0.92199441	     19.60101553	     -8.65468849	     -7.49999987	    -16.42893209	     -6.02123697	     -2.28950655	     19.89381791	    -11.66145464	      9.20430665	     48.05595293	     81.70013241	     18.47824612	    -15.58913228	     -1.49443895	     32.15586608	     88.24734981
      4.26666670	    -25.29160381	     -1.21876160	      4.34464418	      1.37435720	      0.84130508	     -0.08906294	     58.41242168	    -10.11347339	     -5.07022401	     50.23024085	      0.87668309	     17.88293044	    -10.53162705	     -7.49999987	     55.84991504	     -9.63063723	     -5.17837793	     48.73758075	      0.85063125	     18.16925441	     -8.25004255	     -7.49999987	    -14.18310629	     -6.57271936	     -2.34929901	     17.83953365	    -11.45808379	      7.85733858	     42.09509135	     80.25194468	     14.86009086	    -15.60286794	     -7.77599653	     27.17132090	     84.34386437
